<svg viewBox="0 0 640 480" fill="none" xmlns="http://www.w3.org/2000/svg">
  <path fill-rule="evenodd" clip-rule="evenodd" d="M373.267 370.939L410.698 350.67C416.423 347.035 419.522 340.3 419.522 330.942L420 222.867C420 201.526 402.299 173.509 381.013 161.587L296.311 113.779C279.68 104.42 270.856 107.52 258.394 115.329L230.319 129.874L309.304 247.308L373.267 370.939Z" fill="#2ACB11"/>
  <path fill-rule="evenodd" clip-rule="evenodd" d="M220 258.215L220.471 150.142C220.471 128.861 238.658 121.052 259.997 133.034L344.7 180.841C366.046 192.763 384.226 220.841 383.687 242.121L383.208 350.196C383.208 371.476 365.029 379.343 343.69 367.304L258.979 319.557C237.641 307.098 220 279.556 220 258.215Z" fill="#2DDD11"/>
  <path fill-rule="evenodd" clip-rule="evenodd" d="M282.238 185.779L350.94 270.648C353.294 273.578 354.198 277.587 352.755 279.499C352.269 280.157 351.669 280.517 350.879 280.517L316.593 283.207C316.471 283.207 316.411 283.207 316.289 283.207L282.177 285.901C279.823 286.081 276.748 283.388 275.358 279.86C274.879 278.722 274.697 277.587 274.697 276.629V186.437C274.697 183.267 276.93 182.011 279.709 183.626C280.613 184.045 281.456 184.882 282.238 185.779Z" fill="white"/>
</svg>
