<svg viewBox="0 0 640 480" fill="none" xmlns="http://www.w3.org/2000/svg">
  <path d="M273.935 273.253L371.869 270.454C371.869 228.835 340.576 199.165 324.93 189.532L273.935 273.253Z" fill="#BDBDBD"/>
  <path fill-rule="evenodd" clip-rule="evenodd" d="M0.49961 62V420.329L0 480H639.5L640 420.329V62V0H0.49961V62ZM262.828 175.835C284.475 173.364 306.327 178.183 324.93 189.532L371.869 110.134L461.866 270.454H371.869C372.491 292.25 365.836 313.63 352.956 331.217C340.077 348.803 321.707 361.591 300.752 367.559C279.797 373.527 257.452 372.335 237.25 364.171C217.048 356.006 200.141 341.336 189.203 322.479C178.265 303.622 173.92 281.654 176.854 260.048C179.788 238.443 189.835 218.432 205.405 203.181C220.976 187.93 241.181 178.307 262.828 175.835Z" fill="#BDBDBD"/>
  <path fill-rule="evenodd" clip-rule="evenodd" d="M324.93 189.532L273.935 273.253L371.869 270.454C371.869 228.835 340.576 199.165 324.93 189.532Z" fill="#BDBDBD"/>
  <path d="M371.869 110.134L324.93 189.532C340.576 199.165 371.869 228.835 371.869 270.454H461.866L371.869 110.134Z" fill="#757575"/>
  <path d="M324.93 189.532C306.327 178.183 284.475 173.364 262.828 175.835C241.181 178.307 220.976 187.93 205.405 203.181C189.835 218.432 179.788 238.443 176.854 260.048C173.92 281.654 178.265 303.622 189.203 322.479C200.141 341.336 217.048 356.006 237.25 364.171C257.452 372.335 279.797 373.527 300.752 367.559C321.707 361.591 340.077 348.803 352.956 331.217C365.836 313.63 372.491 292.25 371.869 270.454L273.935 273.253L324.93 189.532Z" fill="#757575"/>
</svg>
