<svg width="60" height="60" viewBox="0 0 60 60" fill="none" xmlns="http://www.w3.org/2000/svg">
<g clip-path="url(#clip0_2640_4408)">
<rect width="60" height="60" rx="24" fill="#262626"/>
<path d="M23.752 30C23.752 26.5483 26.5493 23.7495 30.001 23.7495C33.4526 23.7495 36.2515 26.5483 36.2515 30C36.2515 33.4516 33.4526 36.2505 30.001 36.2505C26.5493 36.2505 23.752 33.4516 23.752 30ZM20.3731 30C20.3731 35.3175 24.6835 39.6279 30.001 39.6279C35.3185 39.6279 39.6289 35.3175 39.6289 30C39.6289 24.6825 35.3185 20.3721 30.001 20.3721C24.6835 20.3721 20.3731 24.6825 20.3731 30ZM37.76 19.9903C37.7598 20.4354 37.8916 20.8704 38.1387 21.2405C38.3858 21.6106 38.7371 21.8992 39.1482 22.0696C39.5592 22.2401 40.0116 22.2848 40.4481 22.1982C40.8846 22.1115 41.2856 21.8974 41.6004 21.5829C41.9152 21.2683 42.1296 20.8675 42.2166 20.4311C42.3036 19.9947 42.2592 19.5422 42.0891 19.131C41.919 18.7198 41.6307 18.3683 41.2608 18.1209C40.8909 17.8736 40.4559 17.7414 40.0109 17.7413H40.01C39.4135 17.7415 38.8415 17.9785 38.4197 18.4002C37.9978 18.822 37.7605 19.3939 37.76 19.9903ZM22.426 45.2621C20.5979 45.1788 19.6043 44.8743 18.944 44.6171C18.0686 44.2762 17.444 43.8703 16.7873 43.2145C16.1306 42.5587 15.7241 41.9347 15.3848 41.0593C15.1274 40.3993 14.8229 39.4055 14.7398 37.5774C14.6489 35.601 14.6308 35.0073 14.6308 30.0002C14.6308 24.993 14.6504 24.4009 14.7398 22.4229C14.8231 20.5948 15.1298 19.6029 15.3848 18.9409C15.7256 18.0655 16.1315 17.4409 16.7873 16.7843C17.4431 16.1276 18.0671 15.7211 18.944 15.3818C19.604 15.1244 20.5979 14.8198 22.426 14.7367C24.4024 14.6458 24.9961 14.6277 30.001 14.6277C35.0059 14.6277 35.6002 14.6473 37.5782 14.7367C39.4063 14.82 40.3982 15.1267 41.0602 15.3818C41.9356 15.7211 42.5602 16.1284 43.2169 16.7843C43.8736 17.4401 44.2786 18.0655 44.6194 18.9409C44.8768 19.6009 45.1813 20.5948 45.2644 22.4229C45.3553 24.4009 45.3734 24.993 45.3734 30.0002C45.3734 35.0073 45.3553 35.5993 45.2644 37.5774C45.1811 39.4055 44.8751 40.399 44.6194 41.0593C44.2786 41.9347 43.8727 42.5593 43.2169 43.2145C42.5611 43.8697 41.9356 44.2762 41.0602 44.6171C40.4002 44.8745 39.4063 45.1789 37.5782 45.2621C35.6018 45.3529 35.0081 45.3711 30.001 45.3711C24.9938 45.3711 24.4018 45.3529 22.426 45.2621ZM22.2707 11.3635C20.2747 11.4544 18.9107 11.7709 17.7196 12.2344C16.486 12.7131 15.4417 13.3552 14.3981 14.3971C13.3546 15.439 12.7141 16.485 12.2354 17.7186C11.7719 18.9105 11.4554 20.2737 11.3645 22.2698C11.2721 24.269 11.251 24.9081 11.251 30C11.251 35.0919 11.2721 35.731 11.3645 37.7302C11.4554 39.7264 11.7719 41.0895 12.2354 42.2814C12.7141 43.5142 13.3547 44.5614 14.3981 45.6028C15.4415 46.6443 16.486 47.2855 17.7196 47.7656C18.913 48.229 20.2747 48.5455 22.2707 48.6364C24.271 48.7273 24.9091 48.75 30.001 48.75C35.0929 48.75 35.732 48.7288 37.7312 48.6364C39.7274 48.5455 41.0905 48.229 42.2824 47.7656C43.5152 47.2855 44.5603 46.6447 45.6038 45.6028C46.6474 44.5609 47.2865 43.5142 47.7665 42.2814C48.23 41.0895 48.548 39.7263 48.6374 37.7302C48.7283 35.7295 48.7495 35.0919 48.7495 30C48.7495 24.9081 48.7283 24.269 48.6374 22.2698C48.5465 20.2736 48.23 18.9097 47.7665 17.7186C47.2865 16.4857 46.6457 15.4407 45.6038 14.3971C44.5619 13.3536 43.5152 12.7131 42.2839 12.2344C41.0905 11.7709 39.7273 11.453 37.7327 11.3635C35.7335 11.2727 35.0944 11.25 30.0025 11.25C24.9106 11.25 24.271 11.2712 22.2707 11.3635Z" fill="white"/>
</g>
<defs>
<clipPath id="clip0_2640_4408">
<rect width="60" height="60" fill="white"/>
</clipPath>
</defs>
</svg>
