<svg width="60" height="60" viewBox="0 0 60 60" fill="none" xmlns="http://www.w3.org/2000/svg">
<g clip-path="url(#clip0_2640_4405)">
<rect width="60" height="60" rx="24" fill="#0077B5"/>
<path d="M46.6562 44.1563C44.6875 44.1094 42.7656 44.1094 40.7969 44.1563C40.375 44.1563 40.2812 44.0625 40.2812 43.6407C40.2812 40.1719 40.2812 36.6563 40.2812 33.1875C40.2812 32.3907 40.2344 31.5938 40 30.8438C39.2969 28.4063 36.4844 27.5157 34.4687 29.1563C33.3906 30 32.9687 31.1719 32.9687 32.5782C32.9687 35.8594 32.9687 39.1407 32.9687 42.4219C32.9687 42.8438 32.9219 43.2657 32.9687 43.7344C33.0156 44.1094 32.8281 44.2032 32.5 44.1563C30.4844 44.1563 28.5156 44.1563 26.5 44.1563C26.125 44.1563 26.0312 44.0625 26.0312 43.6875C26.0781 40.7344 26.0781 37.7813 26.0781 34.7813C26.0781 31.125 26.0781 27.4688 26.0312 23.8594C26.0312 23.4375 26.125 23.3438 26.5 23.3438C28.5156 23.3438 30.4844 23.3438 32.5 23.3438C32.875 23.3438 32.9687 23.4375 32.9687 23.8125C32.9687 24.5625 32.9687 25.3125 32.9687 26.2032C33.1094 26.0625 33.1562 26.0157 33.2031 25.9688C35.0312 23.2969 37.6094 22.5469 40.6562 23.0157C44.1719 23.5782 46.4219 26.0157 46.9844 29.7657C47.125 30.6563 47.1719 31.5469 47.1719 32.4375C47.1719 36.1875 47.1719 39.8907 47.1719 43.6407C47.1719 44.0157 47.0781 44.1563 46.6562 44.1563Z" fill="white"/>
<path d="M22.2813 33.75C22.2813 37.0313 22.2813 40.3125 22.2813 43.5938C22.2813 44.0157 22.1875 44.1563 21.7656 44.1563C19.7969 44.1094 17.8281 44.1563 15.8594 44.1563C15.4844 44.1563 15.3906 44.0625 15.3906 43.6875C15.3906 37.0782 15.3906 30.4219 15.3906 23.8125C15.3906 23.4844 15.4844 23.3438 15.8594 23.3438C17.875 23.3438 19.8906 23.3438 21.9063 23.3438C22.3281 23.3438 22.375 23.4844 22.375 23.8594C22.2813 27.1407 22.2813 30.4219 22.2813 33.75Z" fill="white"/>
<path d="M22.6093 17.9063C22.1406 19.7813 20.2187 20.8594 18.0156 20.4844C15.6718 20.1094 14.3593 17.8125 15.2031 15.5625C15.7656 14.1563 17.1249 13.3125 18.8593 13.3594C21.4843 13.3125 23.2187 15.4219 22.6093 17.9063Z" fill="white"/>
</g>
<defs>
<clipPath id="clip0_2640_4405">
<rect width="60" height="60" fill="white"/>
</clipPath>
</defs>
</svg>
