<svg width="60" height="60" viewBox="0 0 60 60" fill="none" xmlns="http://www.w3.org/2000/svg">
<g clip-path="url(#clip0_2640_4467)">
<rect width="60" height="60" rx="24" fill="#419FD9"/>
<path fill-rule="evenodd" clip-rule="evenodd" d="M36.6694 44.8554C38.7662 45.7728 39.5526 43.8506 39.5526 43.8506L45.1006 15.9795C45.0569 14.101 42.5232 15.2368 42.5232 15.2368L11.463 27.425C11.463 27.425 9.97772 27.9492 10.1088 28.8666C10.2398 29.784 11.4193 30.2209 11.4193 30.2209L19.239 32.842C19.239 32.842 21.598 40.5742 22.0785 42.0595C22.5154 43.5011 22.9085 43.5448 22.9085 43.5448C23.3454 43.7196 23.7385 43.4138 23.7385 43.4138L28.806 38.8268L36.6694 44.8554ZM38.0236 20.9159C38.0236 20.9159 39.1157 20.2606 39.072 20.9159C39.072 20.9159 39.2468 21.0032 38.6789 21.6148C38.1547 22.1391 25.7918 33.2351 24.1317 34.7204C24.0007 34.8077 23.9133 34.9388 23.9133 35.1135L23.4328 39.2199C23.3454 39.6568 22.7775 39.7005 22.6464 39.3073L20.5932 32.5798C20.5059 32.3177 20.5932 32.0119 20.8553 31.8372L38.0236 20.9159Z" fill="white"/>
</g>
<defs>
<clipPath id="clip0_2640_4467">
<rect width="60" height="60" fill="white"/>
</clipPath>
</defs>
</svg>
