<svg width="60" height="60" viewBox="0 0 60 60" fill="none" xmlns="http://www.w3.org/2000/svg">
<g clip-path="url(#clip0_2640_4402)">
<rect width="60" height="60" rx="24" fill="#1DA1F2"/>
<path d="M44.7031 23.5156C44.7031 23.8438 44.7031 24.1719 44.7031 24.4531C44.7031 34.1562 37.2969 45.3594 23.7969 45.3594C19.625 45.3594 15.7812 44.1406 12.5 42.0781C13.0625 42.125 13.6719 42.1719 14.2344 42.1719C17.6562 42.1719 20.8437 41 23.375 39.0312C20.1406 38.9844 17.4219 36.8281 16.5312 33.9219C17 34.0156 17.4219 34.0625 17.9375 34.0625C18.5937 34.0625 19.25 33.9688 19.8594 33.7812C16.4844 33.125 13.9531 30.1719 13.9531 26.6094C13.9531 26.5625 13.9531 26.5625 13.9531 26.5156C14.9375 27.0781 16.0625 27.4062 17.2812 27.4531C15.3125 26.1406 14 23.8906 14 21.3125C14 19.9531 14.375 18.6875 14.9844 17.6094C18.5937 22.0625 24.0312 24.9688 30.125 25.2969C29.9844 24.7812 29.9375 24.1719 29.9375 23.6094C29.9375 19.5313 33.2187 16.25 37.2969 16.25C39.4062 16.25 41.3281 17.1406 42.6406 18.5469C44.3281 18.2188 45.875 17.6094 47.3281 16.7656C46.7656 18.5 45.5938 19.9063 44.0937 20.8438C45.5938 20.6562 47 20.2812 48.3125 19.6719C47.375 21.1719 46.1562 22.4844 44.7031 23.5156Z" fill="white"/>
</g>
<defs>
<clipPath id="clip0_2640_4402">
<rect width="60" height="60" fill="white"/>
</clipPath>
</defs>
</svg>
