<svg width="60" height="60" viewBox="0 0 60 60" fill="none" xmlns="http://www.w3.org/2000/svg">
<g clip-path="url(#clip0_2640_4464)">
<rect width="60" height="60" rx="24" fill="#0DC143"/>
<path d="M43.4381 16.5144C40.2218 13.2035 35.7759 11.4062 31.2354 11.4062C21.5867 11.4062 13.8299 19.2576 13.9245 28.8117C13.9245 31.8387 14.7759 34.7711 16.1948 37.4198L13.7354 46.4062L22.911 44.0414C25.4651 45.4603 28.3029 46.1225 31.1408 46.1225C40.6948 46.1225 48.4516 38.2711 48.4516 28.7171C48.4516 24.0819 46.6543 19.7306 43.4381 16.5144ZM31.2354 43.19C28.6813 43.19 26.1272 42.5279 23.9516 41.2035L23.384 40.9198L17.8975 42.3387L19.3164 36.9468L18.9381 36.3792C14.7759 29.663 16.7624 20.7711 23.5732 16.609C30.384 12.4468 39.1813 14.4333 43.3435 21.2441C47.5056 28.0549 45.5191 36.8522 38.7083 41.0144C36.5326 42.4333 33.884 43.19 31.2354 43.19ZM39.5597 32.69L38.5191 32.2171C38.5191 32.2171 37.0056 31.5549 36.0597 31.0819C35.9651 31.0819 35.8705 30.9873 35.7759 30.9873C35.4921 30.9873 35.3029 31.0819 35.1137 31.1765C35.1137 31.1765 35.0191 31.2711 33.6948 32.7846C33.6002 32.9738 33.411 33.0684 33.2218 33.0684H33.1272C33.0326 33.0684 32.8435 32.9738 32.7489 32.8792L32.2759 32.69C31.2354 32.2171 30.2894 31.6495 29.5326 30.8927C29.3435 30.7035 29.0597 30.5144 28.8705 30.3252C28.2083 29.663 27.5462 28.9062 27.0732 28.0549L26.9786 27.8657C26.884 27.7711 26.884 27.6765 26.7894 27.4873C26.7894 27.2981 26.7894 27.109 26.884 27.0144C26.884 27.0144 27.2624 26.5414 27.5462 26.2576C27.7354 26.0684 27.8299 25.7846 28.0191 25.5954C28.2083 25.3117 28.3029 24.9333 28.2083 24.6495C28.1137 24.1765 26.9786 21.6225 26.6948 21.0549C26.5056 20.7711 26.3164 20.6765 26.0326 20.5819H25.7489C25.5597 20.5819 25.2759 20.5819 24.9921 20.5819C24.8029 20.5819 24.6137 20.6765 24.4245 20.6765L24.3299 20.7711C24.1408 20.8657 23.9516 21.0549 23.7624 21.1495C23.5732 21.3387 23.4786 21.5279 23.2894 21.7171C22.6272 22.5684 22.2489 23.609 22.2489 24.6495C22.2489 25.4062 22.4381 26.163 22.7218 26.8252L22.8164 27.109C23.6678 28.9062 24.8029 30.5144 26.3164 31.9333L26.6948 32.3117C26.9786 32.5954 27.2624 32.7846 27.4516 33.0684C29.4381 34.7711 31.7083 36.0008 34.2624 36.663C34.5462 36.7576 34.9245 36.7576 35.2083 36.8522C35.4921 36.8522 35.8705 36.8522 36.1543 36.8522C36.6272 36.8522 37.1948 36.663 37.5732 36.4738C37.857 36.2846 38.0462 36.2846 38.2354 36.0954L38.4245 35.9062C38.6137 35.7171 38.8029 35.6225 38.9921 35.4333C39.1813 35.2441 39.3705 35.0549 39.4651 34.8657C39.6543 34.4873 39.7489 34.0144 39.8435 33.5414C39.8435 33.3522 39.8435 33.0684 39.8435 32.8792C39.8435 32.8792 39.7489 32.7846 39.5597 32.69Z" fill="white"/>
</g>
<defs>
<clipPath id="clip0_2640_4464">
<rect width="60" height="60" fill="white"/>
</clipPath>
</defs>
</svg>
