<svg width="60" height="60" viewBox="0 0 60 60" fill="none" xmlns="http://www.w3.org/2000/svg">
<g clip-path="url(#clip0_2640_4473)">
<rect width="60" height="60" rx="24" fill="#FF0000"/>
<path fill-rule="evenodd" clip-rule="evenodd" d="M46.0627 30.2118C45.6763 28.7767 44.5448 27.6451 43.1096 27.2588C40.4878 26.5412 30.0003 26.5412 30.0003 26.5412C30.0003 26.5412 19.5129 26.5412 16.8911 27.2312C15.4835 27.6175 14.3244 28.7767 13.938 30.2118C13.248 32.8337 13.248 38.2706 13.248 38.2706C13.248 38.2706 13.248 43.7351 13.938 46.3293C14.3244 47.7645 15.4559 48.896 16.8911 49.2824C19.5405 49.9999 30.0003 49.9999 30.0003 49.9999C30.0003 49.9999 40.4878 49.9999 43.1096 49.31C44.5448 48.9236 45.6763 47.7921 46.0627 46.3569C46.7526 43.7351 46.7526 38.2982 46.7526 38.2982C46.7526 38.2982 46.7802 32.8337 46.0627 30.2118ZM39.2213 40.9257V41.4134C39.2213 42.0275 39.2393 42.4971 39.2755 42.8042C39.3116 43.1113 39.3838 43.3461 39.5103 43.4725C39.6187 43.617 39.7993 43.6893 40.0521 43.6893C40.3773 43.6893 40.594 43.5628 40.7205 43.3099C40.8469 43.0571 40.9011 42.6416 40.9191 42.0456L42.7796 42.154C42.7976 42.2443 42.7976 42.3526 42.7976 42.4971C42.7976 43.3822 42.5628 44.0505 42.0751 44.484C41.5874 44.9175 40.9011 45.1342 40.016 45.1342C38.9503 45.1342 38.2098 44.7911 37.7763 44.1228C37.3428 43.4544 37.1261 42.4249 37.1261 41.016V39.3362C37.1261 37.8913 37.3428 36.8437 37.7944 36.1754C38.2459 35.507 39.0045 35.1819 40.0702 35.1819C40.8108 35.1819 41.3888 35.3264 41.7861 35.5974C42.1835 35.8683 42.4544 36.3018 42.617 36.8617C42.7796 37.4397 42.8518 38.2345 42.8518 39.2459V40.8896H39.2213V40.9257ZM39.4922 36.8798C39.3838 37.0243 39.3116 37.241 39.2755 37.5481C39.2393 37.8551 39.2213 38.3248 39.2213 38.9569V39.6433H40.8108V38.9569C40.8108 38.3428 40.7927 37.8732 40.7566 37.5481C40.7204 37.223 40.6301 37.0062 40.5218 36.8798C40.4134 36.7533 40.2328 36.6811 40.016 36.6811C39.7631 36.663 39.6006 36.7353 39.4922 36.8798ZM28.7812 45.0259V35.3987H26.6138V43.039C26.5415 43.2196 26.4151 43.3641 26.2345 43.4725C26.0538 43.5989 25.8732 43.6531 25.6926 43.6531C25.4758 43.6531 25.3133 43.5628 25.223 43.3822C25.1327 43.2016 25.0785 42.8945 25.0785 42.461V35.3987H22.911V42.5875C22.911 43.4906 23.0555 44.1408 23.3626 44.5562C23.6696 44.9717 24.1392 45.1884 24.7714 45.1884C25.6926 45.1884 26.397 44.7369 26.8486 43.8518H26.9028L27.0834 45.0259H28.7812ZM23.5612 33.5925H21.4118V45.0078H19.2985V33.5925H17.1491V31.8404H23.5612V33.5925ZM35.3198 35.6154C35.6088 35.8864 35.8255 36.3199 35.952 36.934C36.0784 37.53 36.1326 38.379 36.1507 39.4808V40.998C36.1507 42.4249 35.97 43.4906 35.6269 44.1589C35.2837 44.8272 34.7599 45.1704 34.0193 45.1704C33.6039 45.1704 33.2426 45.062 32.8995 44.8814C32.5563 44.6827 32.3034 44.4298 32.1408 44.1047H32.0867L31.8699 45.0078H30.0817V31.3527H32.177V36.4282H32.195C32.3757 36.067 32.6466 35.7599 32.9898 35.5432C33.333 35.3084 33.7123 35.2 34.1096 35.2C34.6154 35.2 35.0308 35.3445 35.3198 35.6154ZM33.8748 42.4972C33.929 42.0998 33.9651 41.5579 33.9651 40.8535H33.9832V39.5891C33.9832 38.8486 33.9651 38.2706 33.9109 37.8551C33.8568 37.4578 33.7845 37.1688 33.6581 36.9882C33.5497 36.8256 33.3691 36.7353 33.1523 36.7353C32.9536 36.7353 32.755 36.8256 32.5743 36.9882C32.3937 37.1688 32.2673 37.3855 32.195 37.6384V43.0932C32.2853 43.2558 32.4118 43.3822 32.5563 43.4725C32.7008 43.5628 32.8633 43.5989 33.044 43.5989C33.2607 43.5989 33.4413 43.5086 33.5858 43.3461C33.7123 43.1835 33.8206 42.8945 33.8748 42.4972Z" fill="white"/>
<path d="M27.9685 22.8965C27.535 22.6075 27.2279 22.156 27.0473 21.5238C26.8667 20.9097 26.7764 20.0788 26.7764 19.0673V17.6765C26.7764 16.647 26.8847 15.8161 27.0834 15.1839C27.3002 14.5518 27.6253 14.1002 28.0588 13.8112C28.5103 13.5222 29.0883 13.3777 29.8108 13.3777C30.5153 13.3777 31.0933 13.5222 31.5267 13.8112C31.9602 14.1002 32.2673 14.5698 32.466 15.1839C32.6647 15.7981 32.773 16.6289 32.773 17.6765V19.0673C32.773 20.0969 32.6827 20.9097 32.484 21.5419C32.2854 22.156 31.9783 22.6256 31.5448 22.9146C31.1113 23.2036 30.5153 23.3481 29.7747 23.3481C29.0161 23.33 28.402 23.1855 27.9685 22.8965ZM30.4069 21.3793C30.5333 21.0722 30.5875 20.5484 30.5875 19.844V16.8457C30.5875 16.1593 30.5333 15.6536 30.4069 15.3284C30.2804 15.0033 30.0818 14.8588 29.7747 14.8588C29.4857 14.8588 29.269 15.0214 29.1606 15.3284C29.0342 15.6536 28.98 16.1593 28.98 16.8457V19.844C28.98 20.5484 29.0342 21.0722 29.1606 21.3793C29.269 21.6864 29.4857 21.8489 29.7928 21.8489C30.0818 21.8489 30.2804 21.7044 30.4069 21.3793Z" fill="white"/>
<path d="M22.6938 18.9048L20.2373 10.0001H22.3867L23.2537 14.0279C23.4705 15.0214 23.633 15.8703 23.7414 16.5747H23.7956C23.8678 16.069 24.0304 15.2381 24.2833 14.046L25.1864 10.0001H27.3358L24.8432 18.9048V23.1675H22.7118V18.9048H22.6938Z" fill="white"/>
<path d="M39.7628 13.5583V23.1855H38.065L37.8843 22.0115H37.8302C37.3786 22.8965 36.6742 23.3481 35.753 23.3481C35.1208 23.3481 34.6512 23.1314 34.3441 22.7159C34.0371 22.3005 33.8926 21.6502 33.8926 20.7471V13.5583H36.0601V20.6207C36.0601 21.0542 36.1142 21.3613 36.2045 21.5419C36.2949 21.7225 36.4574 21.8128 36.6742 21.8128C36.8548 21.8128 37.0354 21.7586 37.216 21.6322C37.3967 21.5238 37.5231 21.3793 37.5953 21.1987V13.5583H39.7628Z" fill="white"/>
</g>
<defs>
<clipPath id="clip0_2640_4473">
<rect width="60" height="60" fill="white"/>
</clipPath>
</defs>
</svg>
